<svg width="438" height="79" viewBox="0 0 438 79" fill="none" xmlns="http://www.w3.org/2000/svg">
<g filter="url(#filter0_i_1357_411)">
<ellipse cx="37.2291" cy="34.0142" rx="33.8697" ry="33.9858" fill="#4659A7"/>
</g>
<g filter="url(#filter1_d_1357_411)">
<path d="M6.39999 20.4557C2.9201 28.5367 3.05016 31.8261 3.77268 39.3393C11.7137 34.0674 24.9631 22.5646 29.7589 43.8481C33.0127 58.3226 37.2859 61.4527 45.2339 61.4269C51.7255 60.8077 56.1577 56.8245 65.0885 45.02C65.0885 45.02 68.9674 38.8004 71.2201 35.2376C71.614 34.3224 70.9183 24.7181 69.7597 25.1434C69.0167 28.1578 61.9093 39.626 59.2489 40.3323C53.9933 43.2621 42.3725 43.2533 37.9344 19.7795C33.4963 -3.69425 14.6728 10.6749 6.39999 20.4557Z" fill="url(#paint0_linear_1357_411)"/>
<path d="M6.39999 20.4557C2.9201 28.5367 3.05016 31.8261 3.77268 39.3393C11.7137 34.0674 24.9631 22.5646 29.7589 43.8481C33.0127 58.3226 37.2859 61.4527 45.2339 61.4269C51.7255 60.8077 56.1577 56.8245 65.0885 45.02C65.0885 45.02 68.9674 38.8004 71.2201 35.2376C71.614 34.3224 70.9183 24.7181 69.7597 25.1434C69.0167 28.1578 61.9093 39.626 59.2489 40.3323C53.9933 43.2621 42.3725 43.2533 37.9344 19.7795C33.4963 -3.69425 14.6728 10.6749 6.39999 20.4557Z" stroke="#394B9F"/>
</g>
<g filter="url(#filter2_d_1357_411)">
<rect x="22.4982" y="20.5182" width="29.4617" height="25.064" fill="url(#paint1_linear_1357_411)"/>
<g filter="url(#filter3_i_1357_411)">
<path d="M37.229 23.4204C37.229 30.6197 37.229 48.9562 37.229 48.9562C37.229 45.5041 52.12 46.469 52.12 46.469V19.4872C52.12 19.4872 37.229 17.5364 37.229 23.4204ZM37.229 23.4204L37.229 48.8999L37.2223 48.8113C37.1099 47.6205 35.5932 46.8462 32.672 46.4885L31.944 46.4107C31.6923 46.3874 31.4317 46.3668 31.1621 46.3488L30.3262 46.303L29.4363 46.2731L28.4926 46.2593L27.4949 46.2614C27.3241 46.2631 27.1511 46.2655 26.9759 46.2685L25.8973 46.2946L24.7648 46.3367L23.5784 46.3949L22.338 46.469V19.4872L23.5288 19.341C23.9175 19.2966 24.2978 19.2566 24.67 19.2209L25.7615 19.1269C25.9393 19.1134 26.115 19.101 26.2887 19.0897L27.3058 19.0349C33.9213 18.7564 37.229 20.2182 37.229 23.4204Z" stroke="#BDCAFE" stroke-width="4" stroke-linecap="round" stroke-linejoin="round"/>
</g>
</g>
<path d="M83.46 6H85.82V15.3C85.82 16.1533 86.0533 16.8467 86.52 17.38C86.9867 17.9133 87.6667 18.18 88.56 18.18C89.4667 18.18 90.1467 17.9133 90.6 17.38C91.0667 16.8467 91.3 16.1533 91.3 15.3V6H93.66V15.4C93.66 16.4267 93.44 17.3133 93 18.06C92.5733 18.7933 91.9733 19.36 91.2 19.76C90.44 20.16 89.56 20.36 88.56 20.36C87.56 20.36 86.6733 20.16 85.9 19.76C85.14 19.36 84.54 18.7933 84.1 18.06C83.6733 17.3133 83.46 16.4267 83.46 15.4V6ZM95.285 8.18V6H105.045V8.18H101.345V20H98.965V8.18H95.285ZM111.264 20H106.744V6H111.264C112.69 6 113.944 6.29333 115.024 6.88C116.104 7.45333 116.944 8.26667 117.544 9.32C118.157 10.36 118.464 11.5867 118.464 13C118.464 14.4 118.157 15.6267 117.544 16.68C116.944 17.7333 116.104 18.5533 115.024 19.14C113.944 19.7133 112.69 20 111.264 20ZM111.204 8.22H109.164V17.78H111.204C112.124 17.78 112.95 17.6 113.684 17.24C114.417 16.88 114.99 16.3467 115.404 15.64C115.83 14.9333 116.044 14.0533 116.044 13C116.044 11.9467 115.83 11.0667 115.404 10.36C114.99 9.65333 114.417 9.12 113.684 8.76C112.95 8.4 112.124 8.22 111.204 8.22Z" fill="#7486CE"/>
<path d="M88.2 51.75L83.8 54.8C84.5667 56.4 85.6 57.8833 86.9 59.25C88.2 60.6167 89.7167 61.7167 91.45 62.55C93.2167 63.35 95.1333 63.75 97.2 63.75C98.7 63.75 100.133 63.5 101.5 63C102.9 62.5333 104.15 61.8667 105.25 61C106.35 60.1 107.217 59 107.85 57.7C108.483 56.4 108.8 54.9333 108.8 53.3C108.8 51.7667 108.533 50.4333 108 49.3C107.5 48.1667 106.817 47.1833 105.95 46.35C105.083 45.4833 104.117 44.7667 103.05 44.2C102.017 43.6333 100.983 43.1667 99.95 42.8C98.0833 42.1333 96.5667 41.4833 95.4 40.85C94.2333 40.2167 93.3667 39.55 92.8 38.85C92.2667 38.1167 92 37.3 92 36.4C92 35.4 92.3833 34.5333 93.15 33.8C93.9167 33.0333 95.1167 32.65 96.75 32.65C97.9167 32.65 98.9333 32.8833 99.8 33.35C100.7 33.7833 101.483 34.3833 102.15 35.15C102.817 35.8833 103.367 36.6833 103.8 37.55L108.6 34.85C108 33.6167 107.167 32.4333 106.1 31.3C105.067 30.1667 103.783 29.2333 102.25 28.5C100.717 27.7667 98.9167 27.4 96.85 27.4C94.75 27.4 92.8667 27.8 91.2 28.6C89.5667 29.3667 88.2667 30.4667 87.3 31.9C86.3333 33.3 85.85 34.9333 85.85 36.8C85.85 38.4333 86.1667 39.8333 86.8 41C87.4333 42.1333 88.2333 43.1 89.2 43.9C90.1667 44.6667 91.1833 45.3167 92.25 45.85C93.3167 46.35 94.2833 46.75 95.15 47.05C96.6167 47.5833 97.9 48.1333 99 48.7C100.133 49.2333 101.017 49.9 101.65 50.7C102.283 51.4667 102.6 52.5 102.6 53.8C102.6 55.1667 102.1 56.2833 101.1 57.15C100.1 58.0167 98.8 58.45 97.2 58.45C95.8667 58.45 94.6667 58.1833 93.6 57.65C92.5333 57.0833 91.55 56.3 90.65 55.3C89.7833 54.2667 88.9667 53.0833 88.2 51.75ZM119.955 54V40H114.405V54.6C114.405 57.3333 115.088 59.5 116.455 61.1C117.855 62.7 119.838 63.5 122.405 63.5C124.005 63.5 125.372 63.1667 126.505 62.5C127.672 61.8 128.622 60.7833 129.355 59.45V63H134.755V40H129.355V54C129.355 55.0333 129.138 55.95 128.705 56.75C128.272 57.5167 127.672 58.1167 126.905 58.55C126.138 58.95 125.238 59.15 124.205 59.15C122.772 59.15 121.705 58.7 121.005 57.8C120.305 56.9 119.955 55.6333 119.955 54ZM147.001 40H141.651V63H147.001V40ZM153.851 45.75L156.451 41.2C155.951 40.5667 155.335 40.1333 154.601 39.9C153.868 39.6333 153.085 39.5 152.251 39.5C151.085 39.5 149.951 39.9167 148.851 40.75C147.785 41.5833 146.901 42.7167 146.201 44.15C145.535 45.55 145.201 47.1667 145.201 49L147.001 50.05C147.001 48.95 147.118 48 147.351 47.2C147.618 46.3667 148.035 45.7167 148.601 45.25C149.168 44.7833 149.901 44.55 150.801 44.55C151.468 44.55 152.018 44.65 152.451 44.85C152.885 45.05 153.351 45.35 153.851 45.75ZM158.171 40L170.071 65.1L182.021 40H176.071L170.071 54.85L164.071 40H158.171ZM185.201 30.85C185.201 31.75 185.535 32.5333 186.201 33.2C186.901 33.8333 187.701 34.15 188.601 34.15C189.568 34.15 190.368 33.8333 191.001 33.2C191.668 32.5333 192.001 31.75 192.001 30.85C192.001 29.9167 191.668 29.1333 191.001 28.5C190.368 27.8667 189.568 27.55 188.601 27.55C187.701 27.55 186.901 27.8667 186.201 28.5C185.535 29.1333 185.201 29.9167 185.201 30.85ZM185.951 40V63H191.251V40H185.951ZM195.182 40L207.082 65.1L219.032 40H213.082L207.082 54.85L201.082 40H195.182ZM225.813 55.85C225.813 55.1167 225.98 54.5 226.313 54C226.68 53.5 227.213 53.1167 227.913 52.85C228.613 52.55 229.53 52.4 230.663 52.4C231.963 52.4 233.196 52.5667 234.363 52.9C235.53 53.2333 236.63 53.7667 237.663 54.5V51.75C237.363 51.3833 236.846 50.9833 236.113 50.55C235.38 50.0833 234.446 49.6833 233.313 49.35C232.213 49.0167 230.896 48.85 229.363 48.85C226.496 48.85 224.28 49.5167 222.713 50.85C221.146 52.15 220.363 53.9167 220.363 56.15C220.363 57.7167 220.73 59.05 221.463 60.15C222.196 61.25 223.18 62.0833 224.413 62.65C225.646 63.2167 226.98 63.5 228.413 63.5C229.746 63.5 231.046 63.2667 232.313 62.8C233.613 62.3 234.68 61.5667 235.513 60.6C236.38 59.6 236.813 58.3667 236.813 56.9L236.013 53.9C236.013 55.0333 235.73 56.0333 235.163 56.9C234.63 57.7333 233.913 58.3667 233.013 58.8C232.146 59.2333 231.18 59.45 230.113 59.45C229.28 59.45 228.53 59.3167 227.863 59.05C227.23 58.7833 226.73 58.3833 226.363 57.85C225.996 57.2833 225.813 56.6167 225.813 55.85ZM224.113 46C224.446 45.7667 224.946 45.4833 225.613 45.15C226.313 44.7833 227.13 44.4833 228.063 44.25C229.03 43.9833 230.046 43.85 231.113 43.85C231.813 43.85 232.463 43.9167 233.063 44.05C233.663 44.1833 234.18 44.4 234.613 44.7C235.046 45 235.38 45.3833 235.613 45.85C235.88 46.3167 236.013 46.9167 236.013 47.65V63H241.313V46.6C241.313 45.0667 240.896 43.7833 240.063 42.75C239.23 41.6833 238.08 40.8667 236.613 40.3C235.18 39.7333 233.513 39.45 231.613 39.45C229.48 39.45 227.58 39.75 225.913 40.35C224.28 40.95 222.946 41.5667 221.913 42.2L224.113 46ZM247.608 24V63H253.008V24H247.608ZM292.003 49.7H302.753C302.453 50.8667 302.003 51.9667 301.403 53C300.803 54.0333 300.053 54.95 299.153 55.75C298.253 56.55 297.186 57.1667 295.953 57.6C294.72 58.0333 293.32 58.25 291.753 58.25C289.453 58.25 287.386 57.7167 285.553 56.65C283.72 55.5833 282.253 54.1 281.153 52.2C280.086 50.2667 279.553 48.0333 279.553 45.5C279.553 42.9333 280.103 40.7167 281.203 38.85C282.303 36.95 283.77 35.4833 285.603 34.45C287.436 33.3833 289.486 32.85 291.753 32.85C294.186 32.85 296.253 33.35 297.953 34.35C299.686 35.35 301.036 36.6833 302.003 38.35L306.803 35.15C305.77 33.5167 304.503 32.1333 303.003 31C301.536 29.8333 299.87 28.95 298.003 28.35C296.136 27.7167 294.053 27.4 291.753 27.4C289.12 27.4 286.67 27.8333 284.403 28.7C282.17 29.5667 280.22 30.8167 278.553 32.45C276.92 34.05 275.636 35.9667 274.703 38.2C273.803 40.4 273.353 42.8333 273.353 45.5C273.353 48.1667 273.803 50.6167 274.703 52.85C275.603 55.0833 276.87 57.0167 278.503 58.65C280.17 60.2833 282.12 61.55 284.353 62.45C286.586 63.3167 289.02 63.75 291.653 63.75C294.42 63.75 296.886 63.25 299.053 62.25C301.253 61.2167 303.086 59.8167 304.553 58.05C306.02 56.2833 307.12 54.2667 307.853 52C308.586 49.7 308.92 47.2667 308.853 44.7H292.003V49.7ZM320.004 54V40H314.454V54.6C314.454 57.3333 315.137 59.5 316.504 61.1C317.904 62.7 319.887 63.5 322.454 63.5C324.054 63.5 325.421 63.1667 326.554 62.5C327.721 61.8 328.671 60.7833 329.404 59.45V63H334.804V40H329.404V54C329.404 55.0333 329.187 55.95 328.754 56.75C328.321 57.5167 327.721 58.1167 326.954 58.55C326.187 58.95 325.287 59.15 324.254 59.15C322.821 59.15 321.754 58.7 321.054 57.8C320.354 56.9 320.004 55.6333 320.004 54ZM341.5 30.85C341.5 31.75 341.833 32.5333 342.5 33.2C343.2 33.8333 344 34.15 344.9 34.15C345.867 34.15 346.667 33.8333 347.3 33.2C347.967 32.5333 348.3 31.75 348.3 30.85C348.3 29.9167 347.967 29.1333 347.3 28.5C346.667 27.8667 345.867 27.55 344.9 27.55C344 27.55 343.2 27.8667 342.5 28.5C341.833 29.1333 341.5 29.9167 341.5 30.85ZM342.25 40V63H347.55V40H342.25ZM372.281 24V63H377.731V24H372.281ZM353.231 51.5C353.231 54 353.748 56.15 354.781 57.95C355.815 59.75 357.181 61.1333 358.881 62.1C360.615 63.0333 362.465 63.5 364.431 63.5C366.365 63.5 368.048 63.0167 369.481 62.05C370.948 61.0833 372.098 59.7 372.931 57.9C373.798 56.1 374.231 53.9667 374.231 51.5C374.231 49 373.798 46.8667 372.931 45.1C372.098 43.3 370.948 41.9167 369.481 40.95C368.048 39.9833 366.365 39.5 364.431 39.5C362.465 39.5 360.615 39.9833 358.881 40.95C357.181 41.8833 355.815 43.25 354.781 45.05C353.748 46.8167 353.231 48.9667 353.231 51.5ZM358.831 51.5C358.831 49.9667 359.148 48.65 359.781 47.55C360.415 46.45 361.248 45.6167 362.281 45.05C363.348 44.4833 364.498 44.2 365.731 44.2C366.765 44.2 367.781 44.4833 368.781 45.05C369.815 45.6167 370.648 46.45 371.281 47.55C371.948 48.6167 372.281 49.9333 372.281 51.5C372.281 53.0667 371.948 54.4 371.281 55.5C370.648 56.5667 369.815 57.3833 368.781 57.95C367.781 58.5167 366.765 58.8 365.731 58.8C364.498 58.8 363.348 58.5167 362.281 57.95C361.248 57.3833 360.415 56.55 359.781 55.45C359.148 54.35 358.831 53.0333 358.831 51.5ZM394.425 63.5C397.091 63.5 399.375 62.9833 401.275 61.95C403.175 60.9167 404.725 59.3667 405.925 57.3L401.275 55.4C400.541 56.6333 399.625 57.55 398.525 58.15C397.425 58.75 396.141 59.05 394.675 59.05C393.275 59.05 392.075 58.75 391.075 58.15C390.108 57.55 389.375 56.6833 388.875 55.55C388.375 54.3833 388.125 52.9667 388.125 51.3C388.158 49.6333 388.425 48.2333 388.925 47.1C389.425 45.9667 390.158 45.1 391.125 44.5C392.091 43.9 393.258 43.6 394.625 43.6C395.758 43.6 396.741 43.85 397.575 44.35C398.441 44.85 399.108 45.55 399.575 46.45C400.075 47.35 400.325 48.4167 400.325 49.65C400.325 49.8833 400.258 50.1833 400.125 50.55C400.025 50.8833 399.925 51.15 399.825 51.35L401.475 49.05H385.875V52.75H406.075C406.108 52.6167 406.125 52.4 406.125 52.1C406.158 51.8 406.175 51.5167 406.175 51.25C406.175 48.7833 405.708 46.6833 404.775 44.95C403.875 43.1833 402.575 41.8333 400.875 40.9C399.175 39.9667 397.108 39.5 394.675 39.5C392.241 39.5 390.125 40 388.325 41C386.525 41.9667 385.125 43.35 384.125 45.15C383.158 46.95 382.675 49.0667 382.675 51.5C382.675 53.9 383.158 56 384.125 57.8C385.091 59.6 386.458 61 388.225 62C390.025 63 392.091 63.5 394.425 63.5Z" fill="#4659A7"/>
<defs>
<filter id="filter0_i_1357_411" x="3.35938" y="-4.97156" width="73.7394" height="72.9716" filterUnits="userSpaceOnUse" color-interpolation-filters="sRGB">
<feFlood flood-opacity="0" result="BackgroundImageFix"/>
<feBlend mode="normal" in="SourceGraphic" in2="BackgroundImageFix" result="shape"/>
<feColorMatrix in="SourceAlpha" type="matrix" values="0 0 0 0 0 0 0 0 0 0 0 0 0 0 0 0 0 0 127 0" result="hardAlpha"/>
<feOffset dx="6" dy="-5"/>
<feGaussianBlur stdDeviation="4"/>
<feComposite in2="hardAlpha" operator="arithmetic" k2="-1" k3="1"/>
<feColorMatrix type="matrix" values="0 0 0 0 0.208333 0 0 0 0 0.281863 0 0 0 0 0.625 0 0 0 1 0"/>
<feBlend mode="normal" in2="shape" result="effect1_innerShadow_1357_411"/>
</filter>
<filter id="filter1_d_1357_411" x="0.359375" y="6.06" width="73.9716" height="60.3671" filterUnits="userSpaceOnUse" color-interpolation-filters="sRGB">
<feFlood flood-opacity="0" result="BackgroundImageFix"/>
<feColorMatrix in="SourceAlpha" type="matrix" values="0 0 0 0 0 0 0 0 0 0 0 0 0 0 0 0 0 0 127 0" result="hardAlpha"/>
<feOffset dy="2"/>
<feGaussianBlur stdDeviation="1.5"/>
<feColorMatrix type="matrix" values="0 0 0 0 0.172153 0 0 0 0 0.240302 0 0 0 0 0.558333 0 0 0 1 0"/>
<feBlend mode="normal" in2="BackgroundImageFix" result="effect1_dropShadow_1357_411"/>
<feBlend mode="normal" in="SourceGraphic" in2="effect1_dropShadow_1357_411" result="shape"/>
</filter>
<filter id="filter2_d_1357_411" x="11.3744" y="13.0915" width="49.7094" height="49.8454" filterUnits="userSpaceOnUse" color-interpolation-filters="sRGB">
<feFlood flood-opacity="0" result="BackgroundImageFix"/>
<feColorMatrix in="SourceAlpha" type="matrix" values="0 0 0 0 0 0 0 0 0 0 0 0 0 0 0 0 0 0 127 0" result="hardAlpha"/>
<feOffset dx="-1" dy="4"/>
<feGaussianBlur stdDeviation="2.5"/>
<feComposite in2="hardAlpha" operator="out"/>
<feColorMatrix type="matrix" values="0 0 0 0 0 0 0 0 0 0 0 0 0 0 0 0 0 0 0.25 0"/>
<feBlend mode="normal" in2="BackgroundImageFix" result="effect1_dropShadow_1357_411"/>
<feBlend mode="normal" in="SourceGraphic" in2="effect1_dropShadow_1357_411" result="shape"/>
</filter>
<filter id="filter3_i_1357_411" x="20.338" y="15.9046" width="34.8788" height="34.9954" filterUnits="userSpaceOnUse" color-interpolation-filters="sRGB">
<feFlood flood-opacity="0" result="BackgroundImageFix"/>
<feBlend mode="normal" in="SourceGraphic" in2="BackgroundImageFix" result="shape"/>
<feColorMatrix in="SourceAlpha" type="matrix" values="0 0 0 0 0 0 0 0 0 0 0 0 0 0 0 0 0 0 127 0" result="hardAlpha"/>
<feOffset dx="1.09677" dy="-1.09677"/>
<feGaussianBlur stdDeviation="1.09677"/>
<feComposite in2="hardAlpha" operator="arithmetic" k2="-1" k3="1"/>
<feColorMatrix type="matrix" values="0 0 0 0 0 0 0 0 0 0 0 0 0 0 0 0 0 0 0.25 0"/>
<feBlend mode="normal" in2="shape" result="effect1_innerShadow_1357_411"/>
</filter>
<linearGradient id="paint0_linear_1357_411" x1="48.7371" y1="7.27154" x2="34.3384" y2="61.1555" gradientUnits="userSpaceOnUse">
<stop offset="0.015625" stop-color="#F5A75E"/>
<stop offset="0.229167" stop-color="#FFC888"/>
<stop offset="0.442554" stop-color="#DEAEAA"/>
<stop offset="0.713542" stop-color="#8F99EC"/>
<stop offset="1" stop-color="#69CCC6"/>
</linearGradient>
<linearGradient id="paint1_linear_1357_411" x1="37.229" y1="20.5182" x2="37.229" y2="45.5822" gradientUnits="userSpaceOnUse">
<stop stop-color="white"/>
<stop offset="1" stop-color="#F5F5F5"/>
</linearGradient>
</defs>
</svg>
