<svg width="1920" height="2160" viewBox="0 0 1920 2160" fill="none" xmlns="http://www.w3.org/2000/svg">
<rect width="1920" height="2160" fill="#332B64"/>
<path opacity="0.58" d="M9.18242 205.163C24.6696 253.853 58.4539 301.296 109.364 345.848C315.815 525.218 664.555 525.458 1045.14 707.613C1155.14 760.253 1494.99 926.9 1385.41 1072.24C1310.22 1171.96 1063.1 1238.54 550.375 1369.54C332.788 1425.13 143.113 1466.39 6.12451 1494.42V1951.17C388.279 1885.5 968.694 1755.65 1410.1 1505.71C1899.95 1228.29 1997.86 927.899 1867.47 848.297C1793.63 803.179 1729.61 777.853 1729.61 777.853C1604.76 727.451 1507.3 719.634 1399.61 638.737C1171.47 467.409 1404.96 349.505 1186.93 265.496C965.55 180.201 606.682 256.201 449.661 167.873C364.826 120.13 389.429 52.9013 428.397 0H9.18242V205.163Z" fill="#2F3FF4"/>
<path opacity="0.24" d="M6.76469 259.052C-8.5323 312.672 -7.10415 392.858 112.098 469.185C315.212 599.277 634.831 573.743 857.907 698.934C1059.43 812.028 978.82 949.759 881.96 1093.98C710.901 1348.93 304.453 1531.04 3.17846 1639.3V2160C1804.76 1293.56 1887.85 903.39 1531.58 712.937C1299.9 589.088 721.822 446.423 721.597 222.629C721.597 126.322 861.462 48.2535 970.189 0H465.031H6.76469V259.052Z" fill="#2F3FF4"/>
</svg>
