<svg width="25" height="25" viewBox="0 0 25 25" fill="none" xmlns="http://www.w3.org/2000/svg">
<mask id="mask0_3162_2499" style="mask-type:alpha" maskUnits="userSpaceOnUse" x="0" y="0" width="25" height="25">
<rect x="0.403809" y="0.469177" width="24" height="24" fill="#D9D9D9"/>
</mask>
<g mask="url(#mask0_3162_2499)">
<path d="M18.4038 22.4692C17.5705 22.4692 16.8621 22.1775 16.2788 21.5942C15.6955 21.0108 15.4038 20.3025 15.4038 19.4692C15.4038 19.3525 15.4121 19.2317 15.4288 19.1067C15.4455 18.9817 15.4705 18.8692 15.5038 18.7692L8.45381 14.6692C8.17048 14.9192 7.85381 15.115 7.50381 15.2567C7.15381 15.3983 6.78714 15.4692 6.40381 15.4692C5.57048 15.4692 4.86214 15.1775 4.27881 14.5942C3.69548 14.0108 3.40381 13.3025 3.40381 12.4692C3.40381 11.6358 3.69548 10.9275 4.27881 10.3442C4.86214 9.76084 5.57048 9.46918 6.40381 9.46918C6.78714 9.46918 7.15381 9.54001 7.50381 9.68168C7.85381 9.82334 8.17048 10.0192 8.45381 10.2692L15.5038 6.16918C15.4705 6.06918 15.4455 5.95668 15.4288 5.83168C15.4121 5.70668 15.4038 5.58584 15.4038 5.46918C15.4038 4.63584 15.6955 3.92751 16.2788 3.34418C16.8621 2.76084 17.5705 2.46918 18.4038 2.46918C19.2371 2.46918 19.9455 2.76084 20.5288 3.34418C21.1121 3.92751 21.4038 4.63584 21.4038 5.46918C21.4038 6.30251 21.1121 7.01084 20.5288 7.59418C19.9455 8.17751 19.2371 8.46918 18.4038 8.46918C18.0205 8.46918 17.6538 8.39834 17.3038 8.25668C16.9538 8.11501 16.6371 7.91918 16.3538 7.66918L9.30381 11.7692C9.33714 11.8692 9.36214 11.9817 9.37881 12.1067C9.39548 12.2317 9.40381 12.3525 9.40381 12.4692C9.40381 12.5858 9.39548 12.7067 9.37881 12.8317C9.36214 12.9567 9.33714 13.0692 9.30381 13.1692L16.3538 17.2692C16.6371 17.0192 16.9538 16.8233 17.3038 16.6817C17.6538 16.54 18.0205 16.4692 18.4038 16.4692C19.2371 16.4692 19.9455 16.7608 20.5288 17.3442C21.1121 17.9275 21.4038 18.6358 21.4038 19.4692C21.4038 20.3025 21.1121 21.0108 20.5288 21.5942C19.9455 22.1775 19.2371 22.4692 18.4038 22.4692ZM18.4038 6.46918C18.6871 6.46918 18.9246 6.37334 19.1163 6.18168C19.308 5.99001 19.4038 5.75251 19.4038 5.46918C19.4038 5.18584 19.308 4.94834 19.1163 4.75668C18.9246 4.56501 18.6871 4.46918 18.4038 4.46918C18.1205 4.46918 17.883 4.56501 17.6913 4.75668C17.4996 4.94834 17.4038 5.18584 17.4038 5.46918C17.4038 5.75251 17.4996 5.99001 17.6913 6.18168C17.883 6.37334 18.1205 6.46918 18.4038 6.46918ZM6.40381 13.4692C6.68714 13.4692 6.92464 13.3733 7.11631 13.1817C7.30798 12.99 7.40381 12.7525 7.40381 12.4692C7.40381 12.1858 7.30798 11.9483 7.11631 11.7567C6.92464 11.565 6.68714 11.4692 6.40381 11.4692C6.12048 11.4692 5.88298 11.565 5.69131 11.7567C5.49964 11.9483 5.40381 12.1858 5.40381 12.4692C5.40381 12.7525 5.49964 12.99 5.69131 13.1817C5.88298 13.3733 6.12048 13.4692 6.40381 13.4692ZM18.4038 20.4692C18.6871 20.4692 18.9246 20.3733 19.1163 20.1817C19.308 19.99 19.4038 19.7525 19.4038 19.4692C19.4038 19.1858 19.308 18.9483 19.1163 18.7567C18.9246 18.565 18.6871 18.4692 18.4038 18.4692C18.1205 18.4692 17.883 18.565 17.6913 18.7567C17.4996 18.9483 17.4038 19.1858 17.4038 19.4692C17.4038 19.7525 17.4996 19.99 17.6913 20.1817C17.883 20.3733 18.1205 20.4692 18.4038 20.4692Z" fill="#1C1B1F"/>
</g>
</svg>
